<svg xmlns="http://www.w3.org/2000/svg" xmlns:xlink="http://www.w3.org/1999/xlink" width="500" zoomAndPan="magnify" viewBox="0 0 375 374.999991" height="500" preserveAspectRatio="xMidYMid meet" version="1.0"><defs><clipPath id="678b5de788"><path d="M 119 87.859375 L 287.136719 87.859375 L 287.136719 230 L 119 230 Z M 119 87.859375 " clip-rule="nonzero"/></clipPath><clipPath id="b951f1ee5d"><path d="M 87.636719 144 L 256 144 L 256 287.136719 L 87.636719 287.136719 Z M 87.636719 144 " clip-rule="nonzero"/></clipPath></defs><g clip-path="url(#678b5de788)"><path fill="#181fc5" d="M 277.898438 229.917969 C 278.453125 228.789062 278.984375 227.558594 279.492188 226.355469 C 282.625 218.949219 284.824219 211.28125 286.085938 203.410156 C 286.921875 198.183594 287.34375 192.867188 287.34375 187.492188 C 287.34375 174.019531 284.703125 160.941406 279.492188 148.625 C 274.460938 136.734375 267.261719 126.054688 258.097656 116.886719 C 248.933594 107.722656 238.257812 100.519531 226.367188 95.492188 C 214.046875 90.28125 200.96875 87.632812 187.496094 87.632812 C 174.027344 87.632812 160.949219 90.257812 148.628906 95.464844 C 137.941406 99.988281 128.234375 106.199219 119.722656 114.105469 L 187.492188 114.105469 C 227.921875 114.105469 260.8125 147.058594 260.8125 187.484375 C 260.8125 192.949219 260.210938 198.300781 259.070312 203.464844 L 187.5 203.464844 L 187.5 203.414062 C 178.59375 203.410156 171.492188 196.195312 171.492188 187.390625 C 171.492188 178.585938 178.664062 171.367188 187.492188 171.367188 L 226.917969 171.367188 C 224.804688 166.207031 221.652344 161.441406 217.5625 157.351562 C 209.53125 149.324219 198.851562 144.953125 187.492188 144.953125 C 176.136719 144.953125 165.457031 149.367188 157.429688 157.382812 C 149.394531 165.40625 144.964844 176.082031 144.964844 187.445312 C 144.964844 198.804688 149.398438 209.480469 157.4375 217.503906 C 165.46875 225.519531 176.144531 229.921875 187.507812 229.921875 Z M 277.898438 229.917969 " fill-opacity="1" fill-rule="nonzero"/></g><g clip-path="url(#b951f1ee5d)"><path fill="#0f27ff" d="M 87.65625 187.488281 C 87.65625 200.960938 90.296875 214.050781 95.507812 226.367188 C 100.539062 238.257812 107.734375 248.9375 116.902344 258.101562 C 126.066406 267.269531 136.742188 274.46875 148.632812 279.5 C 160.953125 284.707031 174.03125 287.359375 187.5 287.359375 C 200.972656 287.359375 214.050781 284.734375 226.371094 279.523438 C 237.058594 275.003906 246.765625 268.792969 255.277344 260.886719 L 187.5 260.886719 C 147.074219 260.886719 114.183594 227.9375 114.183594 187.511719 C 114.183594 171.660156 119.238281 157.003906 127.824219 144.910156 L 97.15625 144.910156 C 96.582031 146.199219 96.035156 147.363281 95.511719 148.605469 C 90.296875 160.925781 87.65625 174.011719 87.65625 187.488281 Z M 87.65625 187.488281 " fill-opacity="1" fill-rule="nonzero"/></g></svg>