<svg width="62" height="64" viewBox="0 0 62 64" fill="none" xmlns="http://www.w3.org/2000/svg">
<mask id="mask0_748_965" style="mask-type:luminance" maskUnits="userSpaceOnUse" x="9" y="0" width="53" height="46">
<path d="M9.74756 0H61.9998V45.5109H9.74756V0Z" fill="white"/>
</mask>
<g mask="url(#mask0_748_965)">
<path d="M59.1293 45.4791C59.3017 45.1176 59.4668 44.7236 59.6246 44.3384C60.5982 41.9671 61.2817 39.5119 61.6738 36.9917C61.9336 35.3183 62.0647 33.6161 62.0647 31.8951C62.0647 27.5814 61.244 23.394 59.6246 19.4505C58.0611 15.6433 55.8237 12.2239 52.9758 9.28846C50.1279 6.35429 46.8101 4.04798 43.1148 2.43831C39.286 0.769858 35.2217 -0.078125 31.0348 -0.078125C26.8491 -0.078125 22.7847 0.762354 18.9559 2.42955C15.6345 3.87788 12.6179 5.86651 9.97266 8.39795H31.0336C43.598 8.39795 53.8195 18.949 53.8195 31.8926C53.8195 33.6423 53.6325 35.3558 53.2781 37.0093H31.036V36.993C28.2682 36.9917 26.0612 34.6817 26.0612 31.8626C26.0612 29.0435 28.29 26.7321 31.0336 26.7321H43.286C42.6293 25.08 41.6496 23.5541 40.3786 22.2446C37.8827 19.6744 34.5637 18.2748 31.0336 18.2748C27.5046 18.2748 24.1856 19.6881 21.691 22.2546C19.1939 24.8236 17.8172 28.2418 17.8172 31.8801C17.8172 35.5172 19.1951 38.9354 21.6934 41.5043C24.1893 44.0708 27.507 45.4803 31.0384 45.4803L59.1293 45.4791Z" fill="#181FC5"/>
</g>
<mask id="mask1_748_965" style="mask-type:luminance" maskUnits="userSpaceOnUse" x="0" y="17" width="53" height="47">
<path d="M0 17.9688H52.3227V63.7986H0V17.9688Z" fill="white"/>
</mask>
<g mask="url(#mask1_748_965)">
<path d="M0.00732422 31.8906C0.00732422 36.2043 0.827958 40.3954 2.44737 44.3389C4.01095 48.1461 6.24705 51.5655 9.0962 54.4997C11.9441 57.4351 15.2619 59.7402 18.9572 61.3511C22.786 63.0183 26.8503 63.8675 31.036 63.8675C35.2229 63.8675 39.2873 63.0271 43.1161 61.3586C46.4375 59.9115 49.4541 57.9229 52.0993 55.3915H31.036C18.4728 55.3915 8.25129 44.8417 8.25129 31.8981C8.25129 26.8227 9.82215 22.13 12.4904 18.2578H2.95966C2.78121 18.6705 2.61126 19.0433 2.44859 19.441C0.827958 23.3857 0.00732422 27.5756 0.00732422 31.8906Z" fill="#0F27FF"/>
</g>
</svg>
